<svg width="546" height="288" viewBox="0 0 546 288" fill="none" xmlns="http://www.w3.org/2000/svg">
<rect x="82.7681" width="380.265" height="288" rx="110" fill="#77AAFF"/>
<ellipse cx="217.852" cy="90.7455" rx="12.4933" ry="11.503" fill="black"/>
<ellipse cx="328.731" cy="90.7455" rx="12.4933" ry="11.503" fill="black"/>
<path d="M306.867 125.295C306.867 136.567 291.89 145.704 272.901 145.704C253.912 145.704 238.935 136.567 238.935 125.295C238.935 114.023 253.912 116.018 272.901 116.018C291.89 116.018 306.867 114.023 306.867 125.295Z" fill="white"/>
<path d="M459.446 97.0581C475.744 82.1453 499.868 84.2568 513.328 101.774L521.628 112.576C535.088 130.094 532.787 156.383 516.489 171.296L469.689 214.117C453.391 229.03 429.267 226.919 415.807 209.401L407.507 198.599C394.047 181.082 396.348 154.792 412.646 139.879L459.446 97.0581Z" fill="#77AAFF"/>
<path d="M29.501 169.788C13.2081 154.87 10.9165 128.579 24.3827 111.066L32.333 100.727C45.7992 83.2144 69.9238 81.1117 86.2168 96.0304L133.004 138.872C149.297 153.79 151.589 180.081 138.123 197.594L130.172 207.933C116.706 225.445 92.5815 227.548 76.2885 212.629L29.501 169.788Z" fill="#77AAFF"/>
</svg>
