<svg width="727" height="521" viewBox="0 0 727 521" fill="none" xmlns="http://www.w3.org/2000/svg">
<path d="M186.084 173.948C186.084 77.8793 263.964 0 360.033 0C456.102 0 533.981 77.8793 533.981 173.948V413C533.981 472.647 485.628 521 425.981 521H293.085C233.99 521 186.084 473.094 186.084 414V173.948Z" fill="#79A34A"/>
<path d="M16.1812 250.02C16.1812 180.761 72.3267 124.616 141.586 124.616C210.845 124.616 266.99 180.761 266.99 250.02V440C266.99 484.735 230.725 521 185.99 521H97.1812C52.4461 521 16.1812 484.735 16.1812 440V250.02Z" fill="#FD87C8"/>
<rect x="439.783" y="241.277" width="271.036" height="279.723" rx="106" fill="#77AAFF"/>
<rect y="312.202" width="32.9404" height="96.7761" rx="15" fill="#79A34A"/>
<rect x="694.06" y="341.368" width="32.9404" height="96.7761" rx="15" fill="#79A34A"/>
<ellipse cx="123" cy="187.5" rx="9" ry="8.5" fill="#292A26"/>
<ellipse cx="170.998" cy="183.492" rx="9" ry="8.5" fill="#292A26"/>
<ellipse cx="318.624" cy="95.5" rx="9.5" ry="8.5" fill="#292A26"/>
<ellipse cx="379.624" cy="90.5" rx="9.5" ry="8.5" fill="#292A26"/>
<ellipse cx="507.192" cy="306.782" rx="9" ry="8.5" fill="#292A26"/>
<ellipse cx="556.192" cy="315.282" rx="9" ry="8" fill="#292A26"/>
<path d="M170.787 208.237C170.787 214.644 166.002 221.494 149.405 221.494C132.808 221.494 126 214.643 126 208.237C126 201.831 132.808 204.592 149.405 204.592C166.002 204.592 170.787 201.831 170.787 208.237Z" fill="#FAF8F4"/>
<path d="M378.664 117.794C379.095 124.215 368.459 132.127 350.933 134.159C333.407 136.192 319.635 128.339 319.204 121.918C318.774 115.498 332.236 119.711 349.761 117.679C367.287 115.647 378.234 111.373 378.664 117.794Z" fill="#FAF8F4"/>
<path d="M547 325.055C547 331.1 538.717 336 528.5 336C518.283 336 510 331.1 510 325.055C510 319.01 518.283 321.514 528.5 321.514C538.717 321.514 547 319.01 547 325.055Z" fill="#FAF8F4"/>
</svg>
