<svg width="473" height="811" viewBox="0 0 473 811" fill="none" xmlns="http://www.w3.org/2000/svg">
<path d="M9 289.5C9 284.393 9 281.84 9.04202 279.681C11.3622 160.456 107.456 64.3622 226.681 62.042C228.84 62 231.393 62 236.5 62V62C241.607 62 244.16 62 246.319 62.042C365.544 64.3622 461.638 160.456 463.958 279.681C464 281.84 464 284.393 464 289.5V550C464 622.807 464 659.21 449.831 687.019C437.367 711.48 417.48 731.367 393.019 743.831C365.21 758 328.807 758 256 758H217C144.193 758 107.79 758 79.9812 743.831C55.5202 731.367 35.6327 711.48 23.1692 687.019C9 659.21 9 622.807 9 550V289.5Z" fill="#79A34A"/>
<ellipse cx="9.50938" cy="7.99152" rx="9.50938" ry="7.99152" transform="matrix(0.9868 0.161942 -0.0695177 0.997581 237.232 126.972)" fill="#292A26"/>
<ellipse cx="9.48967" cy="7.97383" rx="9.48967" ry="7.97383" transform="matrix(0.993629 -0.112698 0.122401 0.992481 174 124.354)" fill="#292A26"/>
<path d="M239.743 167.906C239.516 172.129 226.869 167.059 211.5 164.93C196.131 162.801 183.86 164.419 184.087 160.196C184.314 155.972 198.631 144.229 214 146.358C229.369 148.487 239.97 163.682 239.743 167.906Z" fill="#292A26"/>
<path d="M359.4 126.941C356.372 126.187 354.231 124.603 352.978 122.188C351.724 119.774 351.503 116.936 352.315 113.676C353.098 110.532 354.172 107.708 355.537 105.203C357.048 102.612 358.952 100.18 361.25 97.9075C363.692 95.5477 366.659 93.3185 370.149 91.2197C372.505 89.704 374.396 88.3198 375.821 87.067C377.362 85.8431 378.525 84.6488 379.31 83.4838C380.123 82.2025 380.704 80.8631 381.052 79.4658C381.719 76.7876 381.237 74.5034 379.605 72.6131C377.973 70.7229 375.295 69.3138 371.568 68.386C367.842 67.4582 364.247 66.9959 360.784 66.9992C357.32 67.0024 353.872 67.4422 350.439 68.3186C346.481 69.3119 343.236 69.1839 340.703 67.9349C338.199 66.5693 336.45 64.6501 335.459 62.1771C334.467 59.7042 334.202 57.0414 334.665 54.1888C335.245 51.3651 336.683 48.8171 338.98 46.5448C341.394 44.3015 344.623 42.7559 348.667 41.9081C354.022 40.768 359.507 40.3408 365.125 40.6266C370.771 40.7959 375.923 41.4604 380.581 42.6202C388.616 44.6209 395.342 47.6559 400.759 51.7254C406.292 55.8239 410.168 60.6225 412.385 66.1211C414.631 71.5033 414.986 77.2801 413.449 83.4517C412.579 86.945 411.229 90.1332 409.398 93.0163C407.567 95.8993 405.11 98.5647 402.028 101.012C398.974 103.344 394.974 105.501 390.028 107.485C385.751 109.264 382.362 110.955 379.861 112.559C377.388 114.045 375.455 115.604 374.059 117.235C372.78 118.895 371.632 120.774 370.615 122.87C369.686 124.617 368.305 125.943 366.472 126.847C364.668 127.634 362.311 127.666 359.4 126.941ZM348.481 168.556C343.125 167.222 339.266 164.592 336.905 160.665C334.66 156.767 334.175 152.256 335.451 147.133C336.698 142.125 339.212 138.485 342.994 136.211C346.92 133.85 351.562 133.337 356.918 134.67C362.275 136.004 366.076 138.62 368.32 142.518C370.594 146.299 371.107 150.693 369.861 155.7C368.585 160.824 366.042 164.581 362.231 166.971C358.421 169.361 353.837 169.889 348.481 168.556Z" fill="#FD87C8"/>
</svg>
