<svg width="390" height="413" viewBox="0 0 390 413" fill="none" xmlns="http://www.w3.org/2000/svg">
<path d="M297.722 88.0728C317.3 66.4935 350.748 64.7775 372.432 84.2401C394.115 103.703 395.822 136.974 376.244 158.553L269.522 276.186L235.651 245.784C210.991 223.649 209.05 185.81 231.316 161.268L297.722 88.0728Z" fill="#FD87C8"/>
<path d="M0 143C0 64.0234 64.0233 0 143 0C221.977 0 286 64.0233 286 143V316.594C286 350.197 286 366.999 279.46 379.834C273.708 391.123 264.529 400.302 253.239 406.055C240.405 412.594 223.603 412.594 190 412.594H96C62.3969 412.594 45.5953 412.594 32.7606 406.055C21.4708 400.302 12.292 391.123 6.53961 379.834C0 366.999 0 350.197 0 316.594V143Z" fill="#FD87C8"/>
<ellipse cx="111.5" cy="62.5" rx="7.5" ry="6.5" fill="black"/>
<ellipse cx="187.5" cy="62.5" rx="7.5" ry="6.5" fill="black"/>
<path d="M164 84.8321C164 89.7099 158.233 84.8321 150.225 84.8321C142.217 84.8321 135 89.7099 135 84.8321C135 79.9543 141.492 76 149.5 76C157.508 76 164 79.9543 164 84.8321Z" fill="white"/>
</svg>
