<svg width="647" height="495" viewBox="0 0 647 495" fill="none" xmlns="http://www.w3.org/2000/svg">
<path d="M314 166.5C314 74.5446 388.545 0 480.5 0V0C572.455 0 647 74.5446 647 166.5V385C647 444.647 598.647 493 539 493H421C361.906 493 314 445.094 314 386V166.5Z" fill="#79A34A"/>
<ellipse cx="440.864" cy="90.3676" rx="9.09322" ry="8.04319" fill="#292A26"/>
<ellipse cx="499.252" cy="85.6362" rx="9.09322" ry="8.04319" fill="#292A26"/>
<path d="M498.334 111.464C498.746 117.539 488.565 125.026 471.79 126.949C455.015 128.873 441.832 121.442 441.42 115.366C441.007 109.29 453.893 113.278 470.668 111.355C487.443 109.431 497.921 105.388 498.334 111.464Z" fill="#FAF8F4"/>
<path d="M0 211C0 124.291 70.2913 54 157 54V54C243.709 54 314 124.291 314 211V433C314 466.137 287.137 493 254 493H60C26.8629 493 0 466.137 0 433V211Z" fill="#FD87C8"/>
<ellipse cx="119.5" cy="136.5" rx="8.5" ry="7.5" fill="black"/>
<ellipse cx="192.5" cy="140.5" rx="8.5" ry="7.5" fill="black"/>
<path d="M179 158.333C179 162.475 175.83 170 156.5 170C137.17 170 134 162.476 134 158.333C135 155.333 138.67 158.333 158 158.333C177.33 158.333 178.5 155.333 179 158.333Z" fill="#FAFAFA"/>
<rect x="178.154" y="273" width="308.53" height="222" rx="90" fill="#77AAFF"/>
<ellipse cx="287.756" cy="342.95" rx="10.1365" ry="8.86686" fill="black"/>
<ellipse cx="377.717" cy="342.95" rx="10.1365" ry="8.86686" fill="black"/>
<path d="M359.978 369.582C359.978 378.27 347.826 385.314 332.42 385.314C317.013 385.314 304.861 378.27 304.861 369.582C304.861 360.893 317.013 362.431 332.42 362.431C347.826 362.431 359.978 360.893 359.978 369.582Z" fill="white"/>
<path d="M479.945 351.144C495.283 337.811 518.078 339.812 530.859 355.614V355.614C543.64 371.417 541.566 395.036 526.227 408.37L495.914 434.72C480.576 448.054 457.781 446.053 445 430.25V430.25C432.22 414.448 434.293 390.829 449.632 377.495L479.945 351.144Z" fill="#77AAFF"/>
<path d="M138.592 407.059C123.354 393.803 121.301 370.329 134.008 354.629V354.629C146.715 338.929 169.37 336.948 184.609 350.204L215.257 376.866C230.496 390.123 232.548 413.597 219.841 429.297V429.297C207.134 444.997 184.479 446.978 169.24 433.721L138.592 407.059Z" fill="#77AAFF"/>
</svg>
